<?xml version="1.0" standalone="no"?>
<!DOCTYPE svg PUBLIC "-//W3C//DTD SVG 20010904//EN"
 "http://www.w3.org/TR/2001/REC-SVG-20010904/DTD/svg10.dtd">
<svg version="1.0" xmlns="http://www.w3.org/2000/svg"
 width="128.000000pt" height="128.000000pt" viewBox="0 0 128.000000 128.000000"
 preserveAspectRatio="xMidYMid meet">

<g transform="translate(0.000000,128.000000) scale(0.100000,-0.100000)"
fill="#2bb65a" stroke="none">
<path d="M515 1266 c-97 -23 -168 -53 -242 -105 -115 -81 -195 -189 -240 -325
-22 -69 -27 -98 -27 -196 0 -98 5 -127 27 -196 65 -195 211 -341 412 -410 69
-24 95 -28 195 -27 97 0 128 4 197 27 198 65 351 222 415 426 34 109 32 263
-5 376 -47 141 -131 252 -254 334 -135 90 -331 130 -478 96z m464 -340 c58
-30 66 -65 66 -286 0 -317 17 -304 -400 -304 -426 0 -410 -12 -410 299 0 209
8 254 53 283 38 25 125 31 407 28 213 -3 255 -6 284 -20z"/>
<path d="M540 640 l0 -152 23 14 c12 8 66 41 120 73 53 31 97 61 97 65 0 4
-44 34 -97 65 -54 32 -108 65 -120 73 l-23 14 0 -152z" fill="rgb(43, 182, 90)"/>
</g>
</svg>
